<svg width="256" height="40" viewBox="0 0 256 40" xmlns="http://www.w3.org/2000/svg" xmlns:xlink="http://www.w3.org/1999/xlink"><title>2ABADFD2-F810-438D-8A0D-1F62EAEFEBE4</title><defs><path id="a" d="M0 .707h255.32V40H0V.707z"/></defs><g fill="none" fill-rule="evenodd"><g><mask id="b" fill="#fff"><use xlink:href="#a"/></mask><path d="M25.278 33.234V9.838h-4.323L12.638 28.88 4.388 9.84H0v23.395h3.201V15.018l7.92 18.216h2.97l7.986-18.216v18.216h3.201zm8.68-15.873h-3.07v15.873h3.07V17.361zm-3.763-6.006a2.21 2.21 0 0 0 2.211 2.211c1.254 0 2.244-.989 2.244-2.21 0-1.255-.99-2.245-2.244-2.245-1.222 0-2.21.99-2.21 2.244zM42.34 24.06c0-2.409 1.253-4.355 3.696-4.355 2.77 0 3.696 1.781 3.696 3.992v9.537h3.102V23.17c0-3.53-1.88-6.27-5.676-6.27-1.85 0-3.73.758-4.884 2.738v-2.277h-3.036v15.873h3.102V24.06zm17.292 1.19c0-3.269 1.847-5.579 4.687-5.579 2.838 0 4.554 2.245 4.554 5.513 0 3.267-1.749 5.741-4.587 5.741-2.97-.002-4.654-2.41-4.654-5.675zm9.273 5.84c0 .957.1 1.78.165 2.144h3.003a25.12 25.12 0 0 1-.165-2.938V9.341h-3.069v10.264c-.529-1.287-2.046-2.674-4.85-2.674-4.489 0-7.525 3.828-7.525 8.316 0 4.72 2.871 8.416 7.524 8.416 2.475 0 4.156-1.32 4.917-2.84v.266zm6.798-1.98c.264 1.813 2.112 4.62 6.468 4.62 3.926 0 5.807-2.674 5.807-4.918 0-2.344-1.517-4.092-4.388-4.719l-2.575-.562c-1.22-.264-1.813-.957-1.813-1.913 0-1.09 1.056-2.113 2.64-2.113 2.507 0 3.167 1.815 3.3 2.642l2.74-1.02c-.332-1.42-1.684-4.26-6.04-4.26-3.102 0-5.643 2.312-5.643 5.017 0 2.245 1.483 3.928 3.96 4.455l2.706.594c1.318.298 2.046 1.057 2.046 2.047 0 1.121-.957 2.111-2.706 2.111-2.244 0-3.498-1.319-3.697-2.968l-2.805.986zm19.47 10.395V31.09c.858 1.42 2.706 2.574 5.148 2.574 4.651 0 7.392-3.66 7.392-8.383 0-4.619-2.54-8.28-7.293-8.28-2.575 0-4.455 1.254-5.312 2.838V17.36h-3.005v22.145h3.07zm9.372-14.224c0 3.267-1.816 5.61-4.686 5.61-2.84 0-4.72-2.343-4.72-5.61 0-3.168 1.88-5.544 4.72-5.544 2.903 0 4.686 2.376 4.686 5.544zm6.137 3.696c0 2.508 2.08 4.752 5.314 4.752 2.838 0 4.422-1.518 5.115-2.64 0 1.154.1 1.75.165 2.145h3.034c-.064-.396-.196-1.22-.196-2.605v-7.954c0-3.103-1.85-5.809-6.602-5.809-3.43 0-6.17 2.112-6.5 5.147l2.971.694c.196-1.85 1.42-3.202 3.597-3.202 2.41 0 3.431 1.288 3.431 2.838 0 .562-.263 1.057-1.22 1.188l-4.29.627c-2.74.396-4.819 1.98-4.819 4.82zm5.743 2.146c-1.584 0-2.575-1.12-2.575-2.31 0-1.42.991-2.179 2.312-2.377l4.85-.725v.725c0 3.465-2.046 4.687-4.587 4.687zm21.318-13.927a5.94 5.94 0 0 0-1.024-.099c-1.617 0-3.596.594-4.752 3.035v-2.77h-3.036v15.872h3.104v-7.953c0-3.498 1.75-4.884 4.354-4.884.431 0 .893.032 1.355.101v-3.302zm17.522.165h-4.29l-6.862 7.03V9.34h-3.069v23.893h3.07V28.45l2.21-2.21 5.181 6.995h3.894l-6.896-9.174 6.762-6.699zm6.204-8.02h-3.102v23.893h3.102V9.341zm7.293 14.325c.132-2.047 1.716-4.06 4.324-4.06 2.804 0 4.29 1.78 4.355 4.06h-8.679zm9.141 4.125c-.595 1.78-1.882 3.2-4.455 3.2-2.672 0-4.72-1.98-4.784-4.818h11.945a7.11 7.11 0 0 0 .066-.989c0-4.95-2.74-8.316-7.624-8.316-3.993 0-7.589 3.398-7.589 8.384 0 5.378 3.73 8.48 7.986 8.48 3.694 0 6.235-2.212 7.128-5.018l-2.673-.923zm40.591 5.443V9.838h-4.323l-8.317 19.041-8.25-19.04h-4.388v23.395h3.201V15.018l7.92 18.216h2.97l7.986-18.216v18.216h3.201zm4.454-4.257c0 2.508 2.08 4.752 5.312 4.752 2.838 0 4.422-1.518 5.116-2.64 0 1.154.098 1.75.165 2.145h3.036c-.067-.396-.198-1.22-.198-2.605v-7.954c0-3.103-1.849-5.809-6.6-5.809-3.434 0-6.172 2.112-6.502 5.147l2.971.694c.197-1.85 1.42-3.202 3.596-3.202 2.41 0 3.433 1.288 3.433 2.838 0 .562-.265 1.057-1.222 1.188l-4.29.627c-2.738.396-4.817 1.98-4.817 4.82zm5.742 2.146c-1.585 0-2.574-1.12-2.574-2.31 0-1.42.99-2.179 2.31-2.377l4.852-.725v.725c0 3.465-2.047 4.687-4.588 4.687zm11.353 2.968c.395 3.398 3.366 5.91 7.326 5.91 5.972 0 7.952-3.93 7.952-7.954V17.36h-3.068v2.211c-.792-1.584-2.443-2.508-4.884-2.508-4.357 0-7.294 3.433-7.294 7.724 0 4.486 3.068 7.688 7.294 7.688 2.376 0 4.092-1.155 4.85-2.606v2.276c0 3.433-1.517 5.15-4.85 5.15-2.409 0-4.093-1.687-4.323-3.898l-3.003.695zm7.788-4.222c-2.806 0-4.587-1.98-4.587-5.082 0-3.069 1.847-5.082 4.587-5.082 2.673 0 4.52 2.013 4.52 5.082 0 3.068-1.847 5.082-4.52 5.082z" fill="#000" mask="url(#b)"/></g><path d="M117.69.707a3.5 3.5 0 1 1 0 7 3.5 3.5 0 0 1 0-7" fill="#FFA0A0"/></g></svg>